<?xml version="1.0" encoding="utf-8"?>
<!-- Generator: Adobe Illustrator 21.0.0, SVG Export Plug-In . SVG Version: 6.00 Build 0)  -->
<svg xmlns="http://www.w3.org/2000/svg" xmlns:xlink="http://www.w3.org/1999/xlink" version="1.1" id="Layer_1" x="0px" y="0px" viewBox="0 0 256 256" style="enable-background:new 0 0 256 256;" xml:space="preserve" width="512" height="512">
<style type="text/css">
	.st0{fill:#E8F6FC;}
	.st1{fill:#FFCD29;}
	.st2{fill:#F45D64;}
	.st3{fill:#ACDEF9;}
	.st4{fill:#CAECFC;}
	.st5{fill:#6D6C6B;}
	.st6{fill:#60BAE2;}
	.st7{fill:#6DCC6D;}
	.st8{fill:#9CE59C;}
	.st9{fill:#231F20;}
</style>
<g id="Layer_20">
	<path class="st0" d="M38.8,111.1h29.6c3.5,0,6.4,2.8,6.4,6.4V130c0,3.5-2.8,6.4-6.4,6.4H38.8c-3.5,0-6.4-2.8-6.4-6.4v-12.5   C32.5,114,35.3,111.1,38.8,111.1z"/>
	<rect x="38.6" y="136.3" class="st0" width="30.1" height="9.2"/>
	<path class="st1" d="M38.3,145.5H69c7,0,12.7,5.7,12.7,12.7v82.7c0,7-5.7,12.7-12.7,12.7H38.3c-7,0-12.7-5.7-12.7-12.7v-82.7   C25.7,151.2,31.3,145.5,38.3,145.5z"/>
	<rect x="25.7" y="176.3" class="st2" width="56" height="46.4"/>
	<path class="st3" d="M127.8,105.7H94.4c-2.3,0-4.1,1.8-4.1,4.1v5.7h41.6v-5.7C131.9,107.6,130.1,105.8,127.8,105.7z"/>
	<path class="st4" d="M88.9,115.5h43.9c2.4,0,4.4,2,4.4,4.4v15c0,2.4-2,4.4-4.4,4.4H88.9c-2.4,0-4.4-2-4.4-4.4v-15   C84.5,117.5,86.5,115.5,88.9,115.5z"/>
	<path class="st5" d="M120,105.7V80.9c0-4.9-4-8.9-8.9-8.9l0,0c-4.9,0-8.9,4-8.9,8.9v24.9L120,105.7z"/>
	<path class="st5" d="M127.8,139.3H94.5c-7.1,0-13.8,3-18.5,8.4c3.5,2.3,5.6,6.3,5.6,10.5v82.7c0,5-2.9,9.5-7.4,11.5   c1.3,0.7,2.8,1.1,4.3,1.1h65.4c4.8,0,8.6-3.9,8.6-8.6c0,0,0,0,0,0v-81C152.4,150.3,141.4,139.3,127.8,139.3z"/>
	<path class="st0" d="M140.8,8.9h32.7c3.5,0,6.4,2.8,6.4,6.4v12.5c0,3.5-2.8,6.4-6.4,6.4h-32.7c-3.5,0-6.4-2.8-6.4-6.4V15.2   C134.4,11.7,137.3,8.9,140.8,8.9z"/>
	<path class="st0" d="M174.2,34.1h-34.9C124.9,42,114.9,55.9,111.9,72c4.6,0.4,8,4.3,8,8.8v24.9h7.8c2.3,0,4.1,1.8,4.1,4.1v5.7h0.9   c2.4,0,4.4,2,4.4,4.4v15c0,2.4-2,4.4-4.4,4.4h-5.1c13.6,0,24.6,11,24.6,24.6v81c0,4.8-3.9,8.6-8.6,8.6c0,0,0,0,0,0h43.3   c-7,0-12.6-5.7-12.7-12.7v-43c0-7,5.7-12.6,12.7-12.7h0.3v-9.2h0.3c-3.5,0-6.4-2.9-6.4-6.4v-12.5c0-3.5,2.9-6.4,6.4-6.4h14.8V81.5   C202.3,61.7,191.5,43.6,174.2,34.1z"/>
	<path class="st6" d="M120,90.9v14.8h7.8c2.3,0,4.1,1.8,4.1,4.1v5.7h0.9c2.4,0,4.4,2,4.4,4.4v15c0,2.4-2,4.4-4.4,4.4h-5.1   c13.6,0,24.6,11,24.6,24.6v81c0,4.8-3.9,8.6-8.6,8.6c0,0,0,0,0,0H187c-7,0-12.6-5.7-12.7-12.7v-43c0-7,5.7-12.6,12.7-12.7h0.3v-9.2   h0.3c-3.5,0-6.4-2.9-6.4-6.4v-12.5c0-3.5,2.9-6.4,6.4-6.4h14.8V85.7c-0.3,0.1-0.5,0.3-0.7,0.5c-4.4,5.7-12.5,6.7-18.2,2.3   c-0.9-0.7-1.6-1.4-2.3-2.3c-0.5-0.6-1.4-0.8-2.1-0.3c-0.1,0.1-0.2,0.2-0.3,0.3c-4.4,5.7-12.5,6.7-18.2,2.3   c-0.9-0.7-1.6-1.4-2.3-2.3c-0.5-0.6-1.4-0.8-2.1-0.3c-0.1,0.1-0.2,0.2-0.3,0.3c-4.4,5.7-12.5,6.7-18.2,2.3   c-0.9-0.7-1.6-1.4-2.3-2.3c-0.5-0.6-1.4-0.8-2.1-0.3c-0.1,0.1-0.2,0.2-0.3,0.3C130,90.2,124.9,92,120,90.9L120,90.9z"/>
	<path class="st0" d="M187.6,150.9h29.6c3.5,0,6.4,2.8,6.4,6.4v12.5c0,3.5-2.8,6.4-6.4,6.4h-29.6c-3.5,0-6.4-2.8-6.4-6.4v-12.5   C181.2,153.7,184.1,150.9,187.6,150.9z"/>
	<rect x="187.3" y="176.1" class="st0" width="30.1" height="9.2"/>
	<path class="st7" d="M187,185.2h30.7c7,0,12.7,5.7,12.7,12.7v43c0,7-5.7,12.7-12.7,12.7H187c-7,0-12.7-5.7-12.7-12.7v-43   C174.4,190.9,180.1,185.2,187,185.2z"/>
	<path class="st8" d="M189.8,200.9H215c1.4,0,2.5,1.1,2.5,2.5v0v32.1c0,1.4-1.1,2.5-2.5,2.5h-25.2c-1.4,0-2.5-1.1-2.5-2.5v0v-32.1   C187.3,202,188.4,200.9,189.8,200.9z"/>
	<path class="st9" d="M217.7,256H187c-8.4,0-15.1-6.8-15.2-15.2v-43c0-8.4,6.8-15.1,15.2-15.2h30.7c8.4,0,15.1,6.8,15.2,15.2v43   C232.8,249.2,226.1,256,217.7,256z M187,187.7c-5.6,0-10.1,4.5-10.2,10.2v43c0,5.6,4.5,10.1,10.1,10.2h30.7   c5.6,0,10.1-4.5,10.2-10.2v-43c0-5.6-4.5-10.1-10.2-10.2H187z"/>
	<path class="st9" d="M217.2,178.6h-29.6c-4.9,0-8.9-4-8.9-8.9v-12.5c0-4.9,4-8.9,8.9-8.9h29.6c4.9,0,8.9,4,8.9,8.9v12.5   C226,174.6,222,178.6,217.2,178.6z M187.6,153.4c-2.1,0-3.9,1.7-3.9,3.9v12.5c0,2.1,1.7,3.9,3.9,3.9h29.6c2.1,0,3.9-1.7,3.9-3.9   v-12.5c0-2.1-1.7-3.9-3.9-3.9H187.6z"/>
	<path class="st9" d="M173.5,36.6h-32.7c-4.9,0-8.9-4-8.9-8.9V15.2c0-4.9,4-8.9,8.9-8.9h32.7c4.9,0,8.9,4,8.9,8.9v12.5   C182.4,32.6,178.4,36.6,173.5,36.6z M140.8,11.4c-2.1,0-3.9,1.7-3.9,3.9v12.5c0,2.1,1.7,3.9,3.9,3.9h32.7c2.1,0,3.9-1.7,3.9-3.9   V15.2c0-2.1-1.7-3.9-3.9-3.9L140.8,11.4z"/>
	<path class="st9" d="M217.4,187.7h-30.1c-1.4,0-2.5-1.1-2.5-2.5v-9.2c0-1.4,1.1-2.5,2.5-2.5h30.1c1.4,0,2.5,1.1,2.5,2.5v9.2   C219.9,186.6,218.8,187.7,217.4,187.7z M189.8,182.7h25.1v-4.2h-25.1L189.8,182.7z"/>
	<path class="st9" d="M131.9,118H90.3c-1.4,0-2.5-1.1-2.5-2.5v-5.7c0-3.6,3-6.6,6.6-6.6h33.4c3.6,0,6.6,3,6.6,6.6v5.7   C134.4,116.9,133.3,118,131.9,118z M92.8,113h36.6v-3.2c0-0.9-0.7-1.6-1.6-1.6H94.4c-0.9,0-1.6,0.7-1.6,1.6L92.8,113z"/>
	<path class="st9" d="M132.8,141.8H88.9c-3.8,0-6.9-3.1-6.9-6.9v-15c0-3.8,3.1-6.9,6.9-6.9l0,0h43.9c3.8,0,6.9,3.1,6.9,6.9v15   C139.7,138.7,136.6,141.8,132.8,141.8z M88.9,118c-1,0-1.9,0.9-1.9,1.9l0,0v15c0,1,0.9,1.9,1.9,1.9h43.9c1,0,1.9-0.9,1.9-1.9v-15   c0-1-0.9-1.9-1.9-1.9L88.9,118z"/>
	<path class="st9" d="M139,129.9H82.8c-1.4,0-2.5-1.1-2.5-2.5c0-1.4,1.1-2.5,2.5-2.5H139c1.4,0,2.5,1.1,2.5,2.5   C141.5,128.8,140.4,129.9,139,129.9z"/>
	<path class="st9" d="M120,108.2h-17.8c-1.4,0-2.5-1.1-2.5-2.5V80.9c0-6.3,5.1-11.4,11.4-11.4s11.4,5.1,11.4,11.4c0,0,0,0,0,0v24.9   C122.5,107.1,121.4,108.2,120,108.2L120,108.2z M104.7,103.2h12.8V80.9c0-3.5-2.9-6.4-6.4-6.4c-3.5,0-6.4,2.9-6.4,6.4c0,0,0,0,0,0   V103.2z"/>
	<path class="st9" d="M69,256H38.3c-8.4,0-15.1-6.8-15.1-15.2v-82.7c0-8.4,6.8-15.1,15.1-15.2H69c8.4,0,15.1,6.8,15.2,15.2v82.7   C84.1,249.2,77.3,256,69,256z M38.3,148c-5.6,0-10.1,4.5-10.1,10.2v82.7c0,5.6,4.5,10.1,10.1,10.2H69c5.6,0,10.1-4.5,10.2-10.2   v-82.7c0-5.6-4.5-10.1-10.2-10.2L38.3,148z"/>
	<path class="st9" d="M68.4,138.8H38.8c-4.9,0-8.9-4-8.9-8.9v-12.5c0-4.9,4-8.9,8.9-8.9h29.6c4.9,0,8.9,4,8.9,8.9V130   C77.3,134.9,73.3,138.8,68.4,138.8z M38.8,113.6c-2.1,0-3.9,1.7-3.9,3.9V130c0,2.1,1.7,3.9,3.9,3.9h29.6c2.1,0,3.9-1.7,3.9-3.9   v-12.5c0-2.1-1.7-3.9-3.9-3.9H38.8z"/>
	<path class="st9" d="M68.7,148H38.6c-1.4,0-2.5-1.1-2.5-2.5v-9.2c0-1.4,1.1-2.5,2.5-2.5h30.1c1.4,0,2.5,1.1,2.5,2.5v9.2   C71.2,146.9,70.1,148,68.7,148z M41.1,143h25.1v-4.2H41.1L41.1,143z"/>
	<path class="st9" d="M143.8,256H78.4c-1.9,0-3.8-0.5-5.5-1.5c-1.2-0.7-1.6-2.2-0.9-3.4c0.3-0.5,0.7-0.8,1.1-1c3.6-1.6,6-5.3,6-9.2   v-82.7c0-3.4-1.7-6.6-4.5-8.4c-1.1-0.8-1.5-2.3-0.7-3.5c0.1-0.1,0.1-0.2,0.2-0.3c5.2-5.9,12.6-9.2,20.4-9.2h33.3   c15,0,27.1,12.2,27.1,27.1v81C154.9,251,149.9,256,143.8,256z M80.2,251h63.6c3.4,0,6.1-2.7,6.1-6.1v-81c0-12.2-9.9-22.1-22.2-22.1   H94.5c-5.5,0-10.7,2-14.8,5.7c2.8,2.8,4.4,6.7,4.4,10.7v82.7C84.1,244.6,82.7,248.2,80.2,251z"/>
	<path class="st9" d="M187,256h-43.3c-1.4,0-2.5-1.1-2.5-2.5s1.1-2.5,2.5-2.5c3.4,0,6.1-2.7,6.1-6.1v-81c0-12.2-9.9-22.1-22.1-22.1   c-1.4,0-2.5-1.1-2.5-2.5s1.1-2.5,2.5-2.5h5.1c1,0,1.9-0.9,1.9-1.9v-15c0-1-0.9-1.9-1.9-1.9h-0.9c-1.4,0-2.5-1.1-2.5-2.5v-5.7   c0-0.9-0.7-1.6-1.6-1.6H120c-1.4,0-2.5-1.1-2.5-2.5V80.9c0-3.3-2.5-6.1-5.8-6.3c-1.4-0.1-2.4-1.3-2.3-2.7c0-0.1,0-0.1,0-0.2   c3.1-16.8,13.6-31.4,28.6-39.7c0.4-0.2,0.8-0.3,1.2-0.3h34.9c0.4,0,0.8,0.1,1.2,0.3c18.1,9.9,29.4,28.9,29.5,49.6v69.4   c0,1.4-1.1,2.5-2.5,2.5h-14.8c-2.1,0-3.9,1.7-3.9,3.9v12.5c0,2.1,1.7,3.9,3.9,3.9c1.4,0,2.5,1.1,2.5,2.5c0,0.4-0.1,0.8-0.3,1.1v8   c0,1.4-1.1,2.5-2.5,2.5H187c-5.6,0-10.1,4.5-10.2,10.2v43c0,5.6,4.5,10.1,10.2,10.2c1.4,0,2.5,1.1,2.5,2.5S188.4,256,187,256z    M153.1,251h22.7c-2.5-2.8-3.9-6.4-3.9-10.2v-43c0-7.5,5.5-13.9,12.9-15v-4.8c-3.6-1.2-6.1-4.6-6.1-8.4v-12.5c0-4.9,4-8.9,8.9-8.9   h12.3V81.5c0-18.6-10.1-35.8-26.3-44.9h-33.6c-12.7,7.2-21.7,19.4-25.1,33.5c4.6,1.6,7.6,5.9,7.6,10.7v22.4h5.3   c3.6,0,6.6,3,6.6,6.6v3.3c3.1,0.7,5.3,3.5,5.3,6.7v15c0,1.5-0.5,2.9-1.3,4.1c10,4.3,16.5,14.1,16.5,25v81   C154.9,247.1,154.3,249.2,153.1,251z"/>
	<path class="st9" d="M187.8,44.3h-61.2c-1.4,0-2.5-1.1-2.5-2.5s1.1-2.5,2.5-2.5h61.2c1.4,0,2.5,1.1,2.5,2.5S189.1,44.3,187.8,44.3z   "/>
	<path class="st9" d="M215,240.4h-25.2c-2.7,0-5-2.2-5-5v-32.1c0-2.7,2.2-5,5-5H215c2.7,0,5,2.2,5,5v32.1   C219.9,238.1,217.7,240.4,215,240.4z M189.8,203.4l0,32l25.1,0l0-32H189.8z M215,203.4L215,203.4z"/>
	<path class="st9" d="M81.6,225.2h-56c-1.4,0-2.5-1.1-2.5-2.5v-46.4c0-1.4,1.1-2.5,2.5-2.5h56c1.4,0,2.5,1.1,2.5,2.5v46.4   C84.1,224.1,83,225.2,81.6,225.2C81.6,225.2,81.6,225.2,81.6,225.2z M28.2,220.2h51v-41.4h-51L28.2,220.2z"/>
	<path class="st9" d="M187,256h-43.3c-1.4,0-2.5-1.1-2.5-2.5s1.1-2.5,2.5-2.5c3.4,0,6.1-2.7,6.1-6.1v-81c0-12.2-9.9-22.1-22.1-22.1   c-1.4,0-2.5-1.1-2.5-2.5s1.1-2.5,2.5-2.5h5.1c1,0,1.9-0.9,1.9-1.9v-15c0-1-0.9-1.9-1.9-1.9h-0.9c-1.4,0-2.5-1.1-2.5-2.5v-5.7   c0-0.9-0.7-1.6-1.6-1.6H120c-1.4,0-2.5-1.1-2.5-2.5V90.9c0-1.4,1.1-2.5,2.5-2.5c0.2,0,0.4,0,0.6,0.1c4,0.9,8.1-0.6,10.6-3.8   c1.3-1.7,3.8-2.1,5.6-0.7c0.3,0.2,0.5,0.4,0.7,0.7c3.5,4.6,10.1,5.4,14.7,1.9c0.7-0.5,1.3-1.2,1.9-1.9c0.8-1,1.9-1.5,3.1-1.5l0,0   c1.2,0,2.4,0.6,3.1,1.5c3.5,4.6,10.1,5.4,14.7,1.9c0.7-0.5,1.3-1.2,1.9-1.9c1.3-1.7,3.8-2.1,5.6-0.7c0.3,0.2,0.5,0.4,0.7,0.7   c3.5,4.6,10.1,5.4,14.7,1.9c0.7-0.5,1.3-1.2,1.9-1.9c0.5-0.6,1.1-1.1,1.8-1.3c1.3-0.5,2.7,0.2,3.2,1.5c0.1,0.3,0.1,0.5,0.1,0.8   v65.1c0,1.4-1.1,2.5-2.5,2.5h-14.8c-2.1,0-3.9,1.7-3.9,3.9v12.5c0,2.1,1.7,3.9,3.9,3.9c1.4,0,2.5,1.1,2.5,2.5   c0,0.4-0.1,0.8-0.3,1.1v8c0,1.4-1.1,2.5-2.5,2.5H187c-5.6,0-10.1,4.5-10.2,10.2v43c0,5.6,4.5,10.1,10.1,10.2c1.4,0,2.5,1.1,2.5,2.5   S188.4,256,187,256z M153.1,251h22.7c-2.5-2.8-3.9-6.4-3.9-10.2v-43c0-7.5,5.5-13.9,12.9-15v-4.8c-3.6-1.2-6.1-4.6-6.1-8.4v-12.5   c0-4.9,4-8.9,8.9-8.9h12.3V91.2c-6.4,4.1-14.8,3.1-19.9-2.5c-5.8,6.3-15.6,6.7-21.9,1c-0.3-0.3-0.7-0.6-1-1   c-5.8,6.3-15.6,6.7-21.9,1c-0.3-0.3-0.7-0.6-1-1c-3,3.3-7.3,5.2-11.8,5v9.5h5.3c3.6,0,6.6,3,6.6,6.6v3.3c3.1,0.7,5.3,3.5,5.3,6.7   v15c0,1.5-0.5,2.9-1.3,4.1c10,4.3,16.5,14.1,16.5,25v81C154.9,247.1,154.3,249.2,153.1,251z M203.7,87.7L203.7,87.7z"/>
	<path class="st7" d="M216.5,19h-1.8v-1.8c0-1.4-1.1-2.5-2.5-2.5s-2.5,1.1-2.5,2.5V19h-1.8c-1.4,0-2.5,1.1-2.5,2.5s1.1,2.5,2.5,2.5   h1.8v1.8c0,1.4,1.1,2.5,2.5,2.5s2.5-1.1,2.5-2.5V24h1.8c1.4,0,2.5-1.1,2.5-2.5S217.9,19,216.5,19z"/>
	<path class="st2" d="M80.7,89.4c0-0.2-0.1-0.3-0.1-0.5c-0.1-0.1-0.1-0.3-0.2-0.4c-0.1-0.1-0.2-0.3-0.3-0.4c-1-0.9-2.5-0.9-3.5,0   c-0.1,0.1-0.2,0.2-0.3,0.4c-0.2,0.3-0.3,0.6-0.4,0.9c-0.1,0.3-0.1,0.7,0,1c0,0.2,0.1,0.3,0.1,0.5c0.1,0.2,0.1,0.3,0.2,0.4   c0.1,0.1,0.2,0.3,0.3,0.4c1,1,2.5,1,3.5,0c0,0,0,0,0,0c0.1-0.1,0.2-0.2,0.3-0.4c0.1-0.1,0.2-0.3,0.2-0.4c0.1-0.1,0.1-0.3,0.1-0.5   C80.8,90,80.8,89.7,80.7,89.4z"/>
	<path class="st6" d="M200.5,2c0-0.2-0.1-0.3-0.1-0.5c-0.1-0.1-0.1-0.3-0.2-0.4c-0.1-0.1-0.2-0.3-0.3-0.4c-1-0.9-2.5-0.9-3.5,0   c-0.1,0.1-0.2,0.2-0.3,0.4c-0.1,0.1-0.2,0.3-0.2,0.4c-0.1,0.2-0.1,0.3-0.1,0.5c0,0.2-0.1,0.3-0.1,0.5c0,0.2,0,0.3,0.1,0.5   c0,0.2,0.1,0.3,0.1,0.5c0.1,0.2,0.1,0.3,0.2,0.4c0.1,0.1,0.2,0.3,0.3,0.4c1,1,2.5,1,3.5,0c0,0,0,0,0,0c0.1-0.1,0.2-0.2,0.3-0.4   c0.1-0.1,0.2-0.3,0.2-0.4c0.1-0.1,0.1-0.3,0.1-0.5c0-0.2,0-0.3,0.1-0.5C200.5,2.3,200.5,2.1,200.5,2z"/>
	<path class="st2" d="M219.9,126.9c0-0.2-0.1-0.3-0.1-0.5c-0.1-0.1-0.1-0.3-0.2-0.4c-0.1-0.1-0.2-0.3-0.3-0.4c-1-0.9-2.5-0.9-3.5,0   c-0.1,0.1-0.2,0.2-0.3,0.4c-0.2,0.3-0.3,0.6-0.4,0.9c-0.1,0.3-0.1,0.7,0,1c0,0.2,0.1,0.3,0.1,0.5c0.1,0.2,0.1,0.3,0.2,0.4   c0.1,0.1,0.2,0.3,0.3,0.4c1,1,2.5,1,3.5,0c0,0,0,0,0,0c0.1-0.1,0.2-0.2,0.3-0.4c0.1-0.1,0.2-0.3,0.2-0.4c0.1-0.1,0.1-0.3,0.1-0.5   C219.9,127.5,219.9,127.2,219.9,126.9z"/>
	<path class="st1" d="M70.2,70.1c-4.1-0.8-7.2-4-8-8c0-0.1-0.1-0.2-0.2-0.2c-0.1,0-0.1,0.1-0.2,0.2c-0.8,4.1-4,7.2-8,8   c-0.1,0-0.2,0.1-0.1,0.2c0,0.1,0.1,0.1,0.1,0.1c4.1,0.8,7.2,4,8,8c0,0.1,0.1,0.2,0.2,0.2c0.1,0,0.1-0.1,0.2-0.2c0.8-4.1,4-7.2,8-8   c0.1,0,0.2-0.1,0.2-0.2C70.3,70.2,70.3,70.1,70.2,70.1z"/>
</g>
</svg>
