<svg id="Layer_1" enable-background="new 0 0 495 495" height="512" viewBox="0 0 495 495" width="512" xmlns="http://www.w3.org/2000/svg"><g><g fill="#e4eaf1"><path d="m135.5 447.5-64 32-64-32v-80l64-32 64 32z"/><path d="m295.5 127.5-64 32-64-32v-80l64-32 64 32z"/><path d="m359.5 239.5-64 32-64-32v-80l64-32 64 32z"/><path d="m487.5 239.5-64 32-64-32v-80l64-32 64 32z"/></g><g><path d="m175.5 231.5c0 35.346-16 64-16 64s-16-28.654-16-64 16-64 16-64 16 28.654 16 64z" fill="#73cbab"/><path d="m159.5 167.5s-4 7.163-8 18.745c4 11.582 8 27.582 8 45.255s-4 33.673-8 45.255c4 11.582 8 18.745 8 18.745s16-28.654 16-64-16-64-16-64z" fill="#5fa77f"/><path d="m223.5 311.5c-35.346 0-64-16-64-16s28.654-16 64-16 64 16 64 16-28.654 16-64 16z" fill="#73cbab"/><path d="m223.5 295.5c-17.673 0-33.673-4-45.255-8-11.582 4-18.745 8-18.745 8s28.654 16 64 16 64-16 64-16-7.164-4-18.745-8c-11.582 4-27.582 8-45.255 8z" fill="#5fa77f"/><path d="m95.5 311.5c-35.346 0-64-16-64-16s28.654-16 64-16 64 16 64 16-28.654 16-64 16z" fill="#73cbab"/><path d="m95.5 295.5c-17.673 0-33.673-4-45.255-8-11.582 4-18.745 8-18.745 8s28.654 16 64 16 64-16 64-16-7.164-4-18.745-8c-11.582 4-27.582 8-45.255 8z" fill="#5fa77f"/><path d="m219.5 259.5c-26.51 26.51-60 36-60 36s9.49-33.49 36-60 60-36 60-36-9.49 33.49-36 60z" fill="#73cbab"/><g fill="#5fa77f"><path d="m232.686 208.935c-5.581 12.004-14.914 28.292-29.186 42.565-12.237 12.237-25.955 20.84-37.186 26.565-4.785 10.291-6.814 17.435-6.814 17.435s33.49-9.49 60-36 36-60 36-60-9.714 2.758-22.814 9.435z"/><path d="m129.5 345.5c-22.091 22.091-50 30-50 30s7.909-27.909 30-50 50-30 50-30-7.909 27.909-30 50z"/><path d="m189.5 345.5c22.091 22.091 50 30 50 30s-7.909-27.909-30-50-50-30-50-30 7.909 27.909 30 50z"/></g><path d="m99.5 259.5c26.51 26.51 60 36 60 36s-9.49-33.49-36-60-60-36-60-36 9.49 33.49 36 60z" fill="#73cbab"/><path d="m86.314 208.935c5.581 12.004 14.914 28.292 29.186 42.565 12.237 12.237 25.955 20.84 37.186 26.565 4.785 10.291 6.814 17.435 6.814 17.435s-33.49-9.49-60-36-36-60-36-60 9.714 2.758 22.814 9.435z" fill="#5fa77f"/></g><path d="m391.5 351.5c0 17.673-14.327 32-32 32s-32-14.327-32-32 32-64 32-64 32 46.327 32 64z" fill="#eebe79"/><path d="m359.5 287.5s-3.409 4.935-8 12.196c9.478 14.99 24 39.898 24 51.804 0 14.911-10.198 27.439-24 30.992 2.557.658 5.238 1.008 8 1.008 17.673 0 32-14.327 32-32s-32-64-32-64z" fill="#e3865d"/><g><path d="m239.5 80h16v15h-16z" fill="#fff"/></g><g><path d="m431.5 192h16v15h-16z" fill="#fff"/></g><g><g><path d="m423.5 119.115-64 32-56.5-28.25v-80l-71.5-35.75-71.5 35.75v89.271l64 32v40.904c-10.648 5.905-22.759 14.113-33.803 25.157-2.615 2.615-5.07 5.29-7.374 7.991.115-2.199.177-4.429.177-6.688 0-36.875-16.26-66.417-16.952-67.657l-6.548-11.727-6.548 11.727c-.692 1.24-16.952 30.782-16.952 67.657 0 19.657 4.62 37.227 9.04 49.54-1.571-.564-3.23-1.13-4.965-1.691-10.68-5.446-23.735-13.616-35.271-25.152-13.939-13.939-22.969-30.101-28.209-41.602 11.503 5.24 27.663 14.269 41.603 28.208l10.606-10.606c-27.573-27.573-61.814-37.503-63.258-37.913l-12.923-3.662 3.662 12.923c.409 1.444 10.339 35.685 37.913 63.258 2.615 2.615 5.29 5.07 7.991 7.374-2.2-.114-4.43-.177-6.689-.177-36.875 0-66.417 16.26-67.657 16.952l-11.727 6.548 11.727 6.548c1.24.692 30.782 16.952 67.657 16.952 3.527 0 6.984-.151 10.359-.42-.556.533-1.112 1.067-1.662 1.617-5.314 5.314-9.841 10.921-13.68 16.427l-19.017-9.509-71.5 35.75v89.271l71.5 35.75 71.5-35.75v-89.271l-13.754-6.877c1.876-1.642 3.735-3.363 5.557-5.185 7.036-7.036 12.7-14.587 17.197-21.731v46.428h15v-46.428c4.497 7.145 10.161 14.696 17.197 21.731 23.205 23.205 52.042 31.568 53.258 31.913l12.923 3.662-3.662-12.923c-.345-1.216-8.708-30.054-31.913-53.258-11.636-11.636-24.686-19.538-34.962-24.571 1.573-.727 3.214-1.517 4.915-2.371 10.505-3.294 24.029-6.255 38.744-6.255 17.947 0 34.222 4.451 45.334 8.511-11.084 4.054-27.323 8.489-45.334 8.489v15c36.875 0 66.417-16.26 67.657-16.952l11.727-6.548-11.727-6.548c-1.24-.692-30.782-16.952-67.657-16.952-2.259 0-4.489.063-6.688.177 2.701-2.305 5.376-4.759 7.991-7.374 27.573-27.573 37.503-61.814 37.913-63.258l3.662-12.923-12.923 3.662c-.566.16-6.185 1.793-14.455 5.37v-33.519l56.5-28.25 56.5 28.25v70.73l-56.5 28.25-36.646-18.323-6.708 13.416 43.354 21.677 64-32 64 32 71.5-35.75v-89.271zm-263.989 67.051c4.054 11.084 8.489 27.323 8.489 45.334 0 14.722-2.995 28.313-6.313 38.858-.937 1.871-1.802 3.676-2.586 5.389-3.945-11.046-8.101-26.808-8.101-44.247 0-17.947 4.451-34.222 8.511-45.334zm-64.011 117.834c-17.947 0-34.222-4.451-45.334-8.511 11.084-4.054 27.323-8.489 45.334-8.489 14.722 0 28.313 2.995 38.858 6.313 1.66.831 3.263 1.602 4.8 2.313-.955.468-1.94.968-2.94 1.486-10.755 3.538-25.065 6.888-40.718 6.888zm32.5 68.135v70.729l-56.5 28.25-56.5-28.249v-70.729l56.5-28.25 11.093 5.547c-7.128 13.047-10.107 23.308-10.309 24.023l-3.662 12.923 12.923-3.662c.897-.254 16.822-4.879 34.427-16.595zm-3.803-31.938c-10.275 10.274-22.023 17.315-31.171 21.777 4.463-9.149 11.503-20.896 21.777-31.171 8.906-8.905 18.916-15.378 27.383-19.851 1.186-.401 2.327-.802 3.429-1.202-4.478 9.04-11.41 20.438-21.418 30.447zm101.777 21.777c-9.149-4.463-20.896-11.503-31.171-21.777-10.274-10.275-17.315-22.023-21.777-31.171 9.149 4.463 20.896 11.503 31.171 21.777 10.274 10.275 17.315 22.023 21.777 31.171zm-11.777-107.777c-11.544 11.544-24.604 19.712-35.287 25.157-1.73.559-3.383 1.124-4.95 1.686.562-1.566 1.127-3.219 1.685-4.948 5.445-10.684 13.613-23.744 25.158-35.289 13.939-13.939 30.101-22.969 41.602-28.209-5.24 11.503-14.269 27.663-28.208 41.603zm17.303-103.082-56.5-28.25v-70.73l56.5-28.25 56.5 28.25v70.729zm248.5 83.75-56.5 28.25-56.5-28.25v-70.729l56.5-28.25 56.5 28.25z"/><path d="m359.5 274.304-6.171 8.934c-5.565 8.057-33.329 49.215-33.329 68.262 0 21.78 17.72 39.5 39.5 39.5s39.5-17.72 39.5-39.5c0-19.047-27.764-60.205-33.329-68.263zm24.5 77.196c0 13.509-10.991 24.5-24.5 24.5s-24.5-10.991-24.5-24.5c0-2.709 1.456-11.523 14.941-34.784 3.38-5.831 6.786-11.296 9.559-15.616 2.773 4.32 6.179 9.785 9.559 15.616 13.485 23.261 14.941 32.075 14.941 34.784z"/><path d="m207.5 80h16v15h-16z"/><path d="m399.5 192h16v15h-16z"/><path d="m47.5 400h16v15h-16z"/></g><g><path d="m79.5 400h16v15h-16z" fill="#fff"/></g></g></g></svg>